<?xml version="1.0" encoding="UTF-8" standalone="no"?>
<!-- Created with Inkscape (http://www.inkscape.org/) -->

<svg
   width="256"
   height="256"
   viewBox="0 0 67.73333 67.733335"
   version="1.1"
   id="svg5"
   inkscape:version="1.1.2 (0a00cf5339, 2022-02-04)"
   sodipodi:docname="favicon.svg"
   inkscape:export-filename="/home/confluence/repos/tonguefish/favicon.png"
   inkscape:export-xdpi="48.000004"
   inkscape:export-ydpi="48.000004"
   xmlns:inkscape="http://www.inkscape.org/namespaces/inkscape"
   xmlns:sodipodi="http://sodipodi.sourceforge.net/DTD/sodipodi-0.dtd"
   xmlns="http://www.w3.org/2000/svg"
   xmlns:svg="http://www.w3.org/2000/svg">
  <sodipodi:namedview
     id="namedview7"
     pagecolor="#ffffff"
     bordercolor="#666666"
     borderopacity="1.0"
     inkscape:pageshadow="2"
     inkscape:pageopacity="0"
     inkscape:pagecheckerboard="false"
     inkscape:document-units="mm"
     showgrid="false"
     units="px"
     width="500px"
     inkscape:zoom="1.1636989"
     inkscape:cx="26.209529"
     inkscape:cy="101.83046"
     inkscape:window-width="1768"
     inkscape:window-height="1055"
     inkscape:window-x="152"
     inkscape:window-y="0"
     inkscape:window-maximized="1"
     inkscape:current-layer="layer1"
     showguides="true" />
  <defs
     id="defs2">
    <inkscape:path-effect
       effect="fill_between_many"
       method="originald"
       linkedpaths="#path7223-6-6,0,1"
       id="path-effect38082"
       join="true"
       close="true"
       autoreverse="true"
       is_visible="true"
       lpeversion="0"
       applied="false" />
  </defs>
  <g
     inkscape:label="Layer 1"
     inkscape:groupmode="layer"
     id="layer1">
    <path
       id="path1186"
       style="fill:#ffffff;stroke-width:0.418671"
       d="M 60.528137,33.967342 A 28.97422,22.489584 0 0 1 31.553917,56.456926 28.97422,22.489584 0 0 1 2.5796967,33.967342 28.97422,22.489584 0 0 1 31.553917,11.477758 28.97422,22.489584 0 0 1 60.528137,33.967342 Z" />
    <path
       id="path9761-5"
       style="color:#000000;fill:#666666;stroke-width:0.538409;stroke-linecap:round;-inkscape-stroke:none"
       d="M 18.391688,11.378068 C 13.407338,13.354718 9.5444821,15.238544 6.0594411,18.661241 0.50657749,24.11477 -1.9148533,35.285818 1.657332,42.562306 5.8317892,50.689322 9.9122978,54.216269 19.539337,57.860487 46.036105,73.299453 63.54804,53.415672 67.733333,34.048717 61.509798,6.7186126 39.366459,-3.1159723 18.391688,11.378068 Z m 6.690098,2.966944 c 4.910106,-0.03395 10.108322,0.686743 16.051894,4.788505 5.786071,3.993067 11.313355,10.263427 14.960445,16.361395 -5.101719,7.308249 -11.273218,11.774346 -18.061397,15.813097 -5.228143,3.110579 -11.251308,3.479856 -16.567611,2.59115 -4.474012,-0.699122 -6.627464,-2.188736 -9.992901,-5.00214 3.483822,-0.77707 7.45345,-5.092645 6.764119,-8.855404 C 15.721787,43.120636 8.4659281,45.098023 4.9179642,42.285326 2.2750707,36.984151 3.1216475,29.987368 5.5953428,25.082405 10.008981,18.366811 17.67262,14.396241 25.081786,14.345012 Z m -7.636579,5.999154 c -0.09597,9.25e-4 -0.192327,0.0042 -0.288355,0.0097 -3.821165,0.02202 -7.2097609,3.668755 -6.877301,7.490411 0.152412,3.285365 2.847861,6.310753 6.154422,6.639563 3.128605,0.479986 6.450549,-1.43707 7.539323,-4.422584 1.237826,-2.930708 0.147445,-6.625317 -2.495666,-8.402682 -1.168695,-0.832131 -2.592917,-1.328256 -4.032423,-1.314377 z m 12.171207,14.379087 c -0.09597,9.23e-4 -0.19176,0.0042 -0.287786,0.0097 -3.821166,0.02202 -7.21033,3.668755 -6.87787,7.490412 0.152411,3.285362 2.84786,6.311321 6.154421,6.640131 3.128604,0.479986 6.45055,-1.437637 7.539325,-4.423152 1.237823,-2.930708 0.148013,-6.62475 -2.495098,-8.402115 -1.168695,-0.83213 -2.593487,-1.328825 -4.032992,-1.314944 z"
       sodipodi:nodetypes="csccccsscscccccscccccccccccccccc" />
    <path
       id="path9761-5-5"
       style="color:#000000;fill:#000000;stroke-width:0.538409;stroke-linecap:round;-inkscape-stroke:none"
       d="m 36.777344,6.8535156 c -5.312937,0.2435862 -10.448043,2.1091482 -14.957156,4.8745094 -1.066327,0.434102 0.291721,0.298397 0.778596,0.367445 3.07186,0.202616 6.187126,0.01132 9.204982,0.737754 4.86556,0.977044 9.356491,3.375628 13.145489,6.543896 5.553839,4.491387 10.012023,10.108054 13.689417,16.197099 -5.095681,7.648883 -12.408767,13.608565 -20.396902,18.034786 -3.642491,1.896805 -7.772041,2.886071 -11.827708,2.797245 -0.619724,-0.02891 -1.212629,0.163272 -1.773437,0.408203 0.03518,0.81329 0.415035,1.740045 1.311357,1.891251 5.929959,2.514777 12.789963,3.484013 18.991529,1.380091 6.132686,-1.949062 11.095824,-6.530684 14.59203,-11.820533 2.771988,-4.186422 4.756013,-8.894712 5.866416,-13.786696 0.138281,-1.726207 -0.705473,-3.319664 -1.131433,-4.951137 C 61.958568,22.56863 58.047679,15.870028 52.036509,11.493017 47.651208,8.3096823 42.204487,6.5839911 36.777344,6.8535156 Z M 16.988281,22.476562 c -3.269047,0.143692 -5.711143,4.145077 -4.11914,7.070313 1.223297,2.912122 5.540578,3.876175 7.811815,1.627146 2.228927,-1.885332 2.217269,-5.830957 -0.177646,-7.578628 -0.967936,-0.810765 -2.256706,-1.217367 -3.515029,-1.118831 z m 12.140625,14.378907 c -3.309381,0.164881 -5.726733,4.28106 -4.041015,7.199219 1.250872,2.695514 5.313806,3.695562 7.59375,1.65039 2.264649,-1.768903 2.484542,-5.592684 0.275752,-7.492948 -1.023119,-0.968964 -2.419595,-1.48 -3.828487,-1.356661 z" />
  </g>
</svg>
