<?xml version="1.0" encoding="UTF-8" standalone="no"?>
<!-- Created with Inkscape (http://www.inkscape.org/) -->

<svg
   width="256"
   height="256"
   viewBox="0 0 67.73333 67.733335"
   version="1.1"
   id="svg5"
   inkscape:version="1.1.2 (0a00cf5339, 2022-02-04)"
   sodipodi:docname="favicon.svg"
   inkscape:export-filename="/home/confluence/repos/tonguefish/favicon.png"
   inkscape:export-xdpi="48.000004"
   inkscape:export-ydpi="48.000004"
   xmlns:inkscape="http://www.inkscape.org/namespaces/inkscape"
   xmlns:sodipodi="http://sodipodi.sourceforge.net/DTD/sodipodi-0.dtd"
   xmlns="http://www.w3.org/2000/svg"
   xmlns:svg="http://www.w3.org/2000/svg">
  <sodipodi:namedview
     id="namedview7"
     pagecolor="#ffffff"
     bordercolor="#666666"
     borderopacity="1.0"
     inkscape:pageshadow="2"
     inkscape:pageopacity="0"
     inkscape:pagecheckerboard="false"
     inkscape:document-units="mm"
     showgrid="false"
     units="px"
     width="500px"
     inkscape:zoom="1.1636989"
     inkscape:cx="41.247783"
     inkscape:cy="100.97114"
     inkscape:window-width="1448"
     inkscape:window-height="875"
     inkscape:window-x="152"
     inkscape:window-y="0"
     inkscape:window-maximized="1"
     inkscape:current-layer="layer1"
     showguides="true" />
  <defs
     id="defs2">
    <inkscape:path-effect
       effect="fill_between_many"
       method="originald"
       linkedpaths="#path7223-6-6,0,1"
       id="path-effect38082"
       join="true"
       close="true"
       autoreverse="true"
       is_visible="true"
       lpeversion="0"
       applied="false" />
  </defs>
  <g
     inkscape:label="Layer 1"
     inkscape:groupmode="layer"
     id="layer1">
    <circle
       style="fill:#ffffff;fill-opacity:0.5;stroke:none;stroke-width:0.478361"
       id="path1564"
       cx="33.866665"
       cy="33.866665"
       r="33.866665"
       inkscape:export-filename="/home/confluence/repos/tonguefish/path1564.png"
       inkscape:export-xdpi="48.000004"
       inkscape:export-ydpi="48.000004" />
    <circle
       style="fill:#ffffff;stroke:none;stroke-width:0.368857;fill-opacity:1"
       id="path1186"
       cx="25.069281"
       cy="33.967342"
       r="22.489584" />
    <path
       id="path9761-5"
       style="color:#000000;fill:#666666;stroke-width:0.538409;stroke-linecap:round;-inkscape-stroke:none"
       d="M 28.811066,8.638764 C 20.312287,9.270976 11.916448,12.561181 6.0594411,18.661241 0.62400078,24.231812 -1.9148533,35.285818 1.657332,42.562306 c 4.5376011,8.866467 9.525215,12.665085 17.882005,15.298181 5.954841,2.036721 15.290404,1.29984 21.304731,-0.34466 7.568561,-2.180172 20.36191,-11.075863 26.889265,-23.46711 C 66.482156,30.585625 51.233648,13.247054 38.535518,9.854178 35.367818,9.024391 32.087109,8.594285 28.811066,8.638764 Z m -3.72928,5.706248 c 3.128204,-0.03395 6.21127,0.620168 8.984513,2.044649 6.075752,2.964864 11.470123,8.624101 11.86977,15.668437 0.478752,8.322633 -4.494507,16.621873 -11.778203,20.531804 -3.942091,1.727483 -8.471066,1.899395 -12.692749,1.309257 -4.474012,-0.699122 -6.627464,-2.188736 -9.992901,-5.00214 3.483822,-0.77707 7.45345,-5.092645 6.764119,-8.855404 C 15.721787,43.120636 8.4659281,45.098023 4.9179642,42.285326 2.2750707,36.984151 3.1216475,29.987368 5.5953428,25.082405 10.008981,18.366811 17.672879,14.42542 25.081786,14.345012 Z m -7.636579,5.999154 c -0.09597,9.25e-4 -0.192327,0.0042 -0.288355,0.0097 -3.821165,0.02202 -7.2097609,3.668755 -6.877301,7.490411 0.152412,3.285365 2.847861,6.310753 6.154422,6.639563 3.128605,0.479986 6.450549,-1.43707 7.539323,-4.422584 1.237826,-2.930708 0.147445,-6.625317 -2.495666,-8.402682 -1.168695,-0.832131 -2.592917,-1.328256 -4.032423,-1.314377 z m 12.171207,14.379087 c -0.09597,9.23e-4 -0.19176,0.0042 -0.287786,0.0097 -3.821166,0.02202 -7.21033,3.668755 -6.87787,7.490412 0.152411,3.285362 2.84786,6.311321 6.154421,6.640131 3.128604,0.479986 6.45055,-1.437637 7.539325,-4.423152 1.237823,-2.930708 0.148013,-6.62475 -2.495098,-8.402115 -1.168695,-0.83213 -2.593487,-1.328825 -4.032992,-1.314944 z" />
    <path
       id="path9761-5-3"
       style="color:#000000;fill:#000000;fill-opacity:1;stroke-width:0.538409;stroke-linecap:round;-inkscape-stroke:none"
       d="m 29.753906,11.695312 c 0.737636,0.538643 1.557062,0.882596 2.444162,1.087242 5.161062,1.686061 9.76462,5.036059 12.938651,9.444008 1.160185,1.614395 2.152774,3.586167 2.738412,5.566562 1.571607,5.017256 0.672747,10.622833 -1.410238,15.247786 -2.255324,5.00592 -6.207268,9.380075 -11.169971,11.884871 -0.238757,0.297332 -1.585114,0.9622 -0.965652,0.974747 2.141033,0.106659 4.235287,-0.524387 6.272716,-1.112975 4.217521,-1.28147 7.910204,-3.791931 11.403992,-6.409127 C 57.102846,44.463228 61.498453,39.61263 64.755859,34.064453 61.603193,29.437427 57.520254,25.547102 53.382891,21.813283 49.128442,18.122496 44.457461,14.740141 39.125,12.802734 36.495718,11.943128 33.728828,11.43464 30.967585,11.384206 c -0.40456,0.103702 -0.809119,0.207404 -1.213679,0.311106 z M 17.320312,23.001953 c -3.102065,-0.05987 -5.465388,3.840433 -3.826911,6.52292 1.246898,2.461535 4.996023,3.226837 6.960054,1.193462 1.928384,-1.68802 1.908792,-5.110798 -0.170113,-6.675178 -0.815812,-0.693294 -1.886626,-1.100739 -2.96303,-1.041204 z m 12.171876,14.378906 c -3.104019,-0.06048 -5.478047,3.851163 -3.817288,6.530233 1.243186,2.469029 5.029872,3.22814 6.972958,1.161764 1.905872,-1.702608 1.876126,-5.094484 -0.196686,-6.65684 -0.817376,-0.688651 -1.884041,-1.094904 -2.958984,-1.035157 z" />
  </g>
</svg>
